<svg width="300" height="300" viewBox="0 0 300 300" fill="none" xmlns="http://www.w3.org/2000/svg">
<rect width="300" height="300" rx="15" fill="black"/>
<path d="M88.4 94.12H145.05V106.22H88.4V94.12ZM83.34 178.71H146.59V190.92H83.34V178.71ZM95.11 156.05L106.33 153.3C108.97 159.9 111.28 168.59 111.83 174.42L99.95 177.5C99.62 171.78 97.53 162.76 95.11 156.05ZM126.02 152.64L139 155.5C136.03 163.53 133.06 172.33 130.42 177.83L119.31 175.08C121.84 169.14 124.7 159.57 126.02 152.64ZM104.68 126.24V139.66H128.66V126.24H104.68ZM92.47 114.69H141.42V151.1H92.47V114.69ZM62.99 109.19H75.64V129.98C75.64 148.46 72.12 176.07 52.43 192.9C50.78 190.26 45.83 185.31 43.41 183.66C61.23 168.37 62.99 146.04 62.99 129.76V109.19ZM54.63 102.81H87.96V114.8H54.63V102.81ZM44.18 131.85H89.28V144.06H44.18V131.85ZM73.22 147.14C76.74 150.33 88.29 164.08 90.93 167.38L82.57 178.27C78.61 171.34 69.92 159.68 65.52 154.18L73.22 147.14ZM53.86 89.72L66.29 92.03C63.65 106.11 58.92 120.3 53.2 129.21C50.67 127.34 45.06 124.37 41.98 123.16C47.81 115.13 51.77 102.26 53.86 89.72ZM178.49 104.46C177.72 108.31 177.17 114.8 177.17 117.88C177.17 125.03 177.17 133.17 177.83 141.2C179.37 157.04 182.67 167.93 189.6 167.93C194.88 167.93 199.17 154.95 201.26 146.26L212.37 159.57C205 178.82 198.18 185.42 189.38 185.42C177.17 185.42 166.72 174.64 163.64 145.16C162.54 135.04 162.43 122.06 162.43 115.35C162.43 112.38 162.32 107.65 161.55 104.24L178.49 104.46ZM233.49 106.88C243.94 119.53 252.41 147.03 253.62 163.86L239.1 169.58C237.45 151.76 231.51 125.14 219.52 111.5L233.49 106.88Z" fill="white"/>
<path d="M114.101 219V208.091H117.403V210.094H117.524C117.751 209.431 118.135 208.908 118.675 208.524C119.214 208.141 119.858 207.949 120.607 207.949C121.364 207.949 122.013 208.143 122.553 208.531C123.092 208.92 123.436 209.44 123.582 210.094H123.696C123.9 209.445 124.297 208.927 124.889 208.538C125.481 208.145 126.179 207.949 126.984 207.949C128.017 207.949 128.855 208.28 129.499 208.943C130.143 209.601 130.464 210.506 130.464 211.656V219H126.991V212.452C126.991 211.907 126.852 211.493 126.572 211.209C126.293 210.92 125.931 210.776 125.486 210.776C125.008 210.776 124.631 210.932 124.357 211.244C124.087 211.552 123.952 211.966 123.952 212.487V219H120.614V212.416C120.614 211.91 120.476 211.509 120.202 211.216C119.927 210.922 119.565 210.776 119.115 210.776C118.812 210.776 118.545 210.849 118.312 210.996C118.08 211.138 117.898 211.341 117.766 211.607C117.638 211.872 117.574 212.184 117.574 212.544V219H114.101ZM133.916 219V208.091H137.389V219H133.916ZM135.657 206.82C135.169 206.82 134.75 206.659 134.399 206.337C134.049 206.01 133.874 205.617 133.874 205.158C133.874 204.703 134.049 204.315 134.399 203.993C134.75 203.666 135.169 203.503 135.657 203.503C136.149 203.503 136.568 203.666 136.914 203.993C137.264 204.315 137.439 204.703 137.439 205.158C137.439 205.617 137.264 206.01 136.914 206.337C136.568 206.659 136.149 206.82 135.657 206.82ZM140.9 208.091H144.373V219.455C144.373 220.354 144.188 221.069 143.819 221.599C143.455 222.13 142.938 222.511 142.271 222.743C141.603 222.975 140.815 223.091 139.906 223.091C139.783 223.091 139.667 223.089 139.558 223.084C139.449 223.079 139.33 223.074 139.203 223.07V220.435C139.288 220.444 139.364 220.451 139.43 220.456C139.496 220.461 139.562 220.463 139.629 220.463C140.107 220.463 140.438 220.373 140.623 220.193C140.808 220.018 140.9 219.748 140.9 219.384V208.091ZM142.633 206.82C142.145 206.82 141.726 206.659 141.376 206.337C141.026 206.01 140.85 205.617 140.85 205.158C140.85 204.703 141.026 204.315 141.376 203.993C141.726 203.666 142.145 203.503 142.633 203.503C143.125 203.503 143.544 203.666 143.89 203.993C144.241 204.315 144.416 204.703 144.416 205.158C144.416 205.617 144.241 206.01 143.89 206.337C143.544 206.659 143.125 206.82 142.633 206.82ZM147.884 219V208.091H151.357V219H147.884ZM149.624 206.82C149.136 206.82 148.717 206.659 148.367 206.337C148.016 206.01 147.841 205.617 147.841 205.158C147.841 204.703 148.016 204.315 148.367 203.993C148.717 203.666 149.136 203.503 149.624 203.503C150.116 203.503 150.535 203.666 150.881 203.993C151.231 204.315 151.406 204.703 151.406 205.158C151.406 205.617 151.231 206.01 150.881 206.337C150.535 206.659 150.116 206.82 149.624 206.82ZM157.999 216.138L158.014 211.997H158.497L161.565 208.091H165.499L160.94 213.688H160.024L157.999 216.138ZM154.867 219V204.455H158.34V219H154.867ZM161.643 219L158.788 214.469L161.075 212.004L165.656 219H161.643ZM171.118 219.185C170.422 219.185 169.804 219.069 169.264 218.837C168.729 218.6 168.305 218.245 167.993 217.771C167.685 217.293 167.531 216.694 167.531 215.974C167.531 215.368 167.637 214.857 167.85 214.44C168.064 214.024 168.357 213.685 168.731 213.425C169.105 213.164 169.536 212.968 170.024 212.835C170.511 212.698 171.032 212.606 171.586 212.558C172.207 212.501 172.706 212.442 173.085 212.381C173.464 212.314 173.738 212.222 173.909 212.104C174.084 211.981 174.172 211.808 174.172 211.585V211.55C174.172 211.185 174.046 210.903 173.795 210.705C173.544 210.506 173.206 210.406 172.779 210.406C172.32 210.406 171.951 210.506 171.672 210.705C171.392 210.903 171.215 211.178 171.139 211.528L167.936 211.415C168.03 210.752 168.274 210.16 168.667 209.639C169.065 209.114 169.609 208.702 170.301 208.403C170.997 208.1 171.833 207.949 172.808 207.949C173.504 207.949 174.145 208.032 174.733 208.197C175.32 208.358 175.831 208.595 176.267 208.908C176.702 209.215 177.038 209.594 177.275 210.044C177.517 210.494 177.637 211.008 177.637 211.585V219H174.37V217.48H174.285C174.091 217.849 173.842 218.162 173.539 218.418C173.241 218.673 172.888 218.865 172.481 218.993C172.079 219.121 171.624 219.185 171.118 219.185ZM172.19 216.912C172.564 216.912 172.9 216.836 173.199 216.685C173.502 216.533 173.743 216.325 173.923 216.06C174.103 215.79 174.193 215.477 174.193 215.122V214.085C174.093 214.137 173.973 214.185 173.831 214.227C173.693 214.27 173.542 214.31 173.376 214.348C173.21 214.386 173.04 214.419 172.865 214.447C172.69 214.476 172.521 214.502 172.36 214.526C172.034 214.578 171.754 214.658 171.522 214.767C171.295 214.876 171.12 215.018 170.997 215.193C170.878 215.364 170.819 215.567 170.819 215.804C170.819 216.164 170.947 216.438 171.203 216.628C171.463 216.817 171.792 216.912 172.19 216.912ZM181.061 219V208.091H184.534V219H181.061ZM182.801 206.82C182.313 206.82 181.894 206.659 181.544 206.337C181.194 206.01 181.018 205.617 181.018 205.158C181.018 204.703 181.194 204.315 181.544 203.993C181.894 203.666 182.313 203.503 182.801 203.503C183.293 203.503 183.713 203.666 184.058 203.993C184.409 204.315 184.584 204.703 184.584 205.158C184.584 205.617 184.409 206.01 184.058 206.337C183.713 206.659 183.293 206.82 182.801 206.82Z" fill="white"/>
</svg>
